<svg width="390" height="778" viewBox="0 0 390 778" fill="none" xmlns="http://www.w3.org/2000/svg">
<mask id="path-1-inside-1_50_3414" fill="white">
<path d="M0.213833 -1.70033e-05C51.2969 -1.92363e-05 101.88 10.0616 149.074 29.6101C196.269 49.1588 239.151 77.8117 275.272 113.933C311.393 150.054 340.046 192.936 359.595 240.131C379.144 287.325 389.205 337.908 389.205 388.991C389.205 440.074 379.143 490.657 359.595 537.852C340.046 585.046 311.393 627.928 275.272 664.05C239.151 700.171 196.269 728.824 149.074 748.372C101.88 767.921 51.2969 777.982 0.213837 777.982L0.213829 598.614C27.742 598.614 55.0005 593.192 80.4332 582.658C105.866 572.123 128.975 556.683 148.44 537.217C167.905 517.752 183.346 494.643 193.88 469.211C204.415 443.778 209.837 416.519 209.837 388.991C209.837 361.463 204.415 334.205 193.88 308.772C183.346 283.339 167.905 260.231 148.44 240.765C128.975 221.3 105.866 205.859 80.4332 195.325C55.0005 184.79 27.7419 179.368 0.213841 179.368L0.213833 -1.70033e-05Z"/>
</mask>
<path d="M0.213833 -1.70033e-05C51.2969 -1.92363e-05 101.88 10.0616 149.074 29.6101C196.269 49.1588 239.151 77.8117 275.272 113.933C311.393 150.054 340.046 192.936 359.595 240.131C379.144 287.325 389.205 337.908 389.205 388.991C389.205 440.074 379.143 490.657 359.595 537.852C340.046 585.046 311.393 627.928 275.272 664.05C239.151 700.171 196.269 728.824 149.074 748.372C101.88 767.921 51.2969 777.982 0.213837 777.982L0.213829 598.614C27.742 598.614 55.0005 593.192 80.4332 582.658C105.866 572.123 128.975 556.683 148.44 537.217C167.905 517.752 183.346 494.643 193.88 469.211C204.415 443.778 209.837 416.519 209.837 388.991C209.837 361.463 204.415 334.205 193.88 308.772C183.346 283.339 167.905 260.231 148.44 240.765C128.975 221.3 105.866 205.859 80.4332 195.325C55.0005 184.79 27.7419 179.368 0.213841 179.368L0.213833 -1.70033e-05Z" stroke="url(#paint0_linear_50_3414)" stroke-opacity="0.05" stroke-width="200" mask="url(#path-1-inside-1_50_3414)"/>
<defs>
<linearGradient id="paint0_linear_50_3414" x1="389.205" y1="388.991" x2="-388.777" y2="388.991" gradientUnits="userSpaceOnUse">
<stop stop-color="white"/>
<stop offset="1" stop-color="#999999" stop-opacity="0"/>
</linearGradient>
</defs>
</svg>
