<svg width="41" height="41" viewBox="0 0 41 41" fill="none" xmlns="http://www.w3.org/2000/svg">
<circle cx="20.2129" cy="20.3477" r="20" fill="white"/>
<path d="M27.0667 12.883C22.4657 14.3185 17.5572 16.2812 12.6203 18.102C12.0042 18.3297 12.0089 19.1632 12.6298 19.3457C14.0643 19.7668 15.5046 20.2084 16.9451 20.656C17.0385 20.6849 17.1398 20.672 17.2222 20.6205C19.5252 19.179 21.8461 17.6982 24.0985 16.2979C24.2152 16.2252 24.3422 16.3894 24.241 16.4822C22.411 18.1618 20.5084 19.9087 18.6341 21.6282C18.514 21.7383 18.4923 21.9195 18.5822 22.0563C19.7897 23.8928 20.9931 25.7385 22.1198 27.5515C22.406 28.0132 23.0832 27.9166 23.287 27.3914C25.0487 22.8291 26.9038 18.3128 28.2301 14.0427C28.4321 13.3878 27.7206 12.6805 27.0667 12.883Z" fill="#191919"/>
<path d="M16.7217 22.0769C16.733 23.3536 16.7563 24.6303 16.7912 25.9069C16.8075 26.4523 17.4504 26.7552 17.8367 26.3919C18.2405 26.0133 18.6491 25.6311 19.0615 25.2467C19.2609 25.0609 19.2974 24.7529 19.1461 24.5202C18.5724 23.6376 17.9921 22.7547 17.413 21.8762C17.2061 21.5623 16.7182 21.7045 16.7217 22.0769Z" fill="#191919"/>
</svg>
