<svg width="1154" height="821" viewBox="0 0 1154 821" fill="none" xmlns="http://www.w3.org/2000/svg">
<path d="M-27.9133 -588.31C83.5147 -651.612 122.921 -793.312 59.9674 -904.127C-3.00754 -1014.98 -144.922 -1053.72 -256.35 -990.417C-367.815 -927.094 -407.2 -785.358 -344.225 -674.506C-281.271 -563.69 -139.36 -524.998 -27.9133 -588.31ZM-365.36 -34.3282C-159.227 22.1955 56.9815 -4.96827 243.338 -110.837C428.978 -216.299 562.807 -387.359 620.23 -592.517C643.371 -675.469 594.618 -761.501 511.593 -784.261C471.23 -795.372 428.926 -790.035 392.446 -769.31C356.131 -748.68 329.973 -715.221 318.762 -675.103C283.833 -550.224 202.367 -446.083 89.3579 -381.883C-24.0743 -317.442 -155.691 -300.895 -281.17 -335.278C-321.491 -346.315 -363.797 -341.025 -400.241 -320.322C-436.593 -299.67 -462.732 -266.222 -473.961 -226.093C-497.173 -143.095 -448.443 -57.1044 -365.36 -34.3282ZM-640.708 955.666C-169.764 1084.32 323.977 1021.96 749.536 780.201C1174.53 538.766 1480.71 147.199 1611.64 -322.44C1634.78 -405.392 1585.97 -491.393 1502.86 -514.101C1462.59 -525.094 1420.37 -519.733 1383.96 -499.05C1347.57 -478.378 1321.36 -444.935 1310.17 -404.732C1201.62 -15.4788 947.875 309.126 595.608 509.248C242.826 709.663 -166.412 761.336 -556.78 654.641C-597.061 643.629 -639.365 648.966 -675.754 669.639C-712.124 690.301 -738.298 723.817 -749.487 763.972C-772.623 846.976 -723.815 933.019 -640.708 955.666Z" fill="white" fill-opacity="0.05"/>
</svg>
