<svg width="1921" height="1008" viewBox="0 0 1921 1008" fill="none" xmlns="http://www.w3.org/2000/svg">
<g clip-path="url(#clip0_2041_7)">
<path d="M-643.302 1766.44C-531.874 1829.74 -492.467 1971.44 -555.421 2082.26C-618.396 2193.11 -760.311 2231.85 -871.739 2168.55C-983.203 2105.23 -1022.59 1963.49 -959.614 1852.64C-896.66 1741.82 -754.748 1703.13 -643.302 1766.44ZM-980.749 1212.46C-774.616 1155.94 -558.407 1183.1 -372.05 1288.97C-186.411 1394.43 -52.582 1565.49 4.84178 1770.65C27.9825 1853.6 -20.7705 1939.63 -103.796 1962.39C-144.158 1973.5 -186.462 1968.17 -222.943 1947.44C-259.258 1926.81 -285.416 1893.35 -296.626 1853.23C-331.555 1728.35 -413.022 1624.21 -526.031 1560.01C-639.463 1495.57 -771.08 1479.03 -896.558 1513.41C-936.879 1524.45 -979.185 1519.16 -1015.63 1498.45C-1051.98 1477.8 -1078.12 1444.35 -1089.35 1404.22C-1112.56 1321.23 -1063.83 1235.24 -980.749 1212.46ZM-1256.1 222.465C-785.153 93.8099 -291.412 156.17 134.147 397.93C559.137 639.366 865.321 1030.93 996.253 1500.57C1019.39 1583.52 970.586 1669.52 887.468 1692.23C847.197 1703.22 804.98 1697.86 768.573 1677.18C732.184 1656.51 705.969 1623.07 694.782 1582.86C586.235 1193.61 332.486 869.006 -19.7808 668.883C-372.562 468.469 -781.801 416.795 -1172.17 523.491C-1212.45 534.502 -1254.75 529.165 -1291.14 508.492C-1327.51 487.831 -1353.69 454.314 -1364.88 414.159C-1388.01 331.156 -1339.2 245.113 -1256.1 222.465Z" fill="white" fill-opacity="0.05"/>
</g>
<g clip-path="url(#clip1_2041_7)">
<path d="M739.087 -588.31C850.515 -651.612 889.921 -793.312 826.967 -904.127C763.992 -1014.98 622.078 -1053.72 510.65 -990.417C399.185 -927.094 359.8 -785.358 422.775 -674.506C485.729 -563.69 627.64 -524.998 739.087 -588.31ZM401.64 -34.3282C607.773 22.1955 823.981 -4.96827 1010.34 -110.837C1195.98 -216.299 1329.81 -387.359 1387.23 -592.517C1410.37 -675.469 1361.62 -761.501 1278.59 -784.261C1238.23 -795.372 1195.93 -790.035 1159.45 -769.31C1123.13 -748.68 1096.97 -715.221 1085.76 -675.103C1050.83 -550.224 969.367 -446.083 856.358 -381.883C742.926 -317.442 611.309 -300.895 485.83 -335.278C445.509 -346.315 403.203 -341.025 366.759 -320.322C330.407 -299.67 304.268 -266.222 293.039 -226.093C269.827 -143.095 318.557 -57.1044 401.64 -34.3282ZM126.292 955.666C597.236 1084.32 1090.98 1021.96 1516.54 780.201C1941.53 538.766 2247.71 147.199 2378.64 -322.44C2401.78 -405.392 2352.97 -491.393 2269.86 -514.101C2229.59 -525.094 2187.37 -519.733 2150.96 -499.05C2114.57 -478.378 2088.36 -444.935 2077.17 -404.732C1968.62 -15.4788 1714.87 309.126 1362.61 509.248C1009.83 709.663 600.588 761.336 210.22 654.641C169.939 643.629 127.635 648.966 91.2461 669.639C54.8758 690.301 28.7024 723.817 17.5125 763.972C-5.6232 846.976 43.185 933.019 126.292 955.666Z" fill="white" fill-opacity="0.05"/>
</g>
<defs>
<clipPath id="clip0_2041_7">
<rect width="955" height="778" fill="white" transform="matrix(-1 0 0 1 811.545 230)"/>
</clipPath>
<clipPath id="clip1_2041_7">
<rect width="1427" height="824" fill="white" transform="matrix(-1 0 0 -1 2194.21 820.995)"/>
</clipPath>
</defs>
</svg>
