<svg width="812" height="778" viewBox="0 0 812 778" fill="none" xmlns="http://www.w3.org/2000/svg">
<path d="M-643.302 1536.44C-531.874 1599.74 -492.467 1741.44 -555.421 1852.26C-618.396 1963.11 -760.311 2001.85 -871.739 1938.55C-983.203 1875.23 -1022.59 1733.49 -959.614 1622.64C-896.66 1511.82 -754.748 1473.13 -643.302 1536.44ZM-980.749 982.46C-774.616 925.936 -558.407 953.1 -372.05 1058.97C-186.411 1164.43 -52.582 1335.49 4.84178 1540.65C27.9825 1623.6 -20.7705 1709.63 -103.796 1732.39C-144.158 1743.5 -186.462 1738.17 -222.943 1717.44C-259.258 1696.81 -285.416 1663.35 -296.626 1623.23C-331.555 1498.35 -413.022 1394.21 -526.031 1330.01C-639.463 1265.57 -771.08 1249.03 -896.558 1283.41C-936.879 1294.45 -979.185 1289.16 -1015.63 1268.45C-1051.98 1247.8 -1078.12 1214.35 -1089.35 1174.22C-1112.56 1091.23 -1063.83 1005.24 -980.749 982.46ZM-1256.1 -7.5346C-785.153 -136.19 -291.412 -73.8296 134.147 167.93C559.137 409.366 865.321 800.932 996.253 1270.57C1019.39 1353.52 970.586 1439.52 887.468 1462.23C847.197 1473.22 804.98 1467.86 768.573 1447.18C732.184 1426.51 705.969 1393.07 694.782 1352.86C586.235 963.61 332.486 639.006 -19.7808 438.883C-372.562 238.469 -781.801 186.795 -1172.17 293.491C-1212.45 304.502 -1254.75 299.165 -1291.14 278.492C-1327.51 257.831 -1353.69 224.314 -1364.88 184.159C-1388.01 101.156 -1339.2 15.1127 -1256.1 -7.5346Z" fill="white" fill-opacity="0.05"/>
</svg>
