<svg width="101" height="100" viewBox="0 0 101 100" fill="none" xmlns="http://www.w3.org/2000/svg">
<circle cx="50.5" cy="50" r="25" fill="#FFDC42" fill-opacity="0.7"/>
<g filter="url(#filter0_b_73_3553)">
<rect x="0.5" width="100" height="100" rx="20" fill="#F3FFEC" fill-opacity="0.3"/>
<rect x="1" y="0.5" width="99" height="99" rx="19.5" stroke="url(#paint0_linear_73_3553)"/>
</g>
<path d="M67.0978 58.9718L61.5066 57.0262C61.1001 56.8827 60.6413 56.998 60.3478 57.3176C57.6066 60.3089 54.1087 61.9567 50.5 61.9567C46.8914 61.9567 43.3935 60.3088 40.6522 57.3176C40.5083 57.1617 40.322 57.0511 40.1162 56.9993C39.9104 56.9476 39.694 56.9569 39.4935 57.0262L33.9022 58.9718C28.2262 60.9457 24.4131 66.3088 24.4131 72.3174V73.9131C24.4131 74.5131 24.9001 75.0001 25.5001 75.0001H75.5001C76.1001 75.0001 76.5871 74.5131 76.5871 73.9131V72.3174C76.587 66.3065 72.7739 60.9435 67.0978 58.9718ZM74.4131 72.8261H26.587V72.3174C26.587 67.2326 29.8131 62.6935 34.6152 61.0239L39.5457 59.3087C42.6283 62.424 46.4934 64.1304 50.5 64.1304C54.5066 64.1304 58.3718 62.4239 61.4544 59.3087L66.3848 61.0239C71.187 62.6935 74.4131 67.2326 74.4131 72.3174V72.8261Z" fill="white"/>
<path d="M63.5365 38.326C63.5409 38.2326 63.543 38.1369 63.543 38.0435C63.543 30.85 57.693 25 50.4996 25C43.3061 25 37.4561 30.85 37.4561 38.0435C37.4561 38.1369 37.4582 38.2326 37.4626 38.326C36.1669 39.0348 35.2822 41.0151 35.2822 43.4782C35.2822 46.5022 36.617 48.7999 38.4083 48.9087C40.3844 55.4565 45.1431 59.7826 50.4996 59.7826C55.8561 59.7826 60.6148 55.4565 62.5909 48.9087C64.3822 48.7999 65.7169 46.5022 65.7169 43.4782C65.7169 41.0151 64.8322 39.0348 63.5365 38.326ZM62.3887 46.6913C62.2429 46.6013 62.078 46.5469 61.9073 46.5325C61.7365 46.5182 61.5648 46.5442 61.4061 46.6086C61.248 46.6734 61.1074 46.7745 60.9956 46.9036C60.8839 47.0328 60.804 47.1864 60.7625 47.3521C59.2408 53.4869 55.117 57.6087 50.4996 57.6087C45.8822 57.6087 41.7583 53.4869 40.2365 47.3521C40.1517 47.0151 39.8799 46.7652 39.5582 46.6326C39.4387 46.5826 39.3083 46.5609 39.1756 46.5609C38.9539 46.5609 38.7277 46.6239 38.543 46.7391C38.2713 46.7391 37.4561 45.5826 37.4561 43.4782C37.4561 41.4847 38.1887 40.3434 38.4952 40.226C38.5061 40.2281 38.5191 40.2304 38.5278 40.2304C38.8474 40.2543 39.1756 40.1477 39.4061 39.9173C39.6365 39.6847 39.7518 39.3609 39.717 39.0369L39.6865 38.7651C39.6605 38.526 39.63 38.2891 39.63 38.0434C39.63 32.05 44.5061 27.1739 50.4996 27.1739C56.493 27.1739 61.3692 32.05 61.3692 38.0435C61.3692 38.2892 61.3387 38.5261 61.3126 38.763L61.2821 39.0348C61.2495 39.3609 61.3625 39.6848 61.593 39.9152C61.8257 40.1479 62.1495 40.2565 62.4713 40.2304C62.48 40.2283 62.493 40.2283 62.5039 40.226C62.8105 40.3434 63.543 41.4847 63.543 43.4782C63.543 45.5826 62.7453 46.7391 62.3887 46.6913Z" fill="white"/>
<path d="M50.5002 33.6956C47.9393 33.6956 46.1523 35.4825 46.1523 38.0434C46.1523 38.6434 46.6393 39.1304 47.2393 39.1304C47.8393 39.1304 48.3263 38.6434 48.3263 38.0434C48.3263 36.0825 49.8459 35.8695 50.5002 35.8695C51.1545 35.8695 52.6741 36.0826 52.6741 38.0434C52.6741 39.8674 52.2719 40.6999 51.0197 41.4629C48.6023 42.9412 48.1979 44.8955 48.3393 45.8173C48.4219 46.3521 48.8784 46.7195 49.4044 46.7195C49.448 46.7195 49.4936 46.7151 49.5393 46.7108C50.1197 46.6434 50.5392 46.1064 50.4914 45.5217C50.4893 45.4761 50.4197 44.3783 52.1545 43.3195C54.0675 42.15 54.848 40.6216 54.848 38.0434C54.8481 35.4825 53.0611 33.6956 50.5002 33.6956Z" fill="white"/>
<path d="M49.4132 51.0868C50.0135 51.0868 50.5002 50.6002 50.5002 49.9998C50.5002 49.3995 50.0135 48.9128 49.4132 48.9128C48.8128 48.9128 48.3262 49.3995 48.3262 49.9998C48.3262 50.6002 48.8128 51.0868 49.4132 51.0868Z" fill="white"/>
<defs>
<filter id="filter0_b_73_3553" x="-9.5" y="-10" width="120" height="120" filterUnits="userSpaceOnUse" color-interpolation-filters="sRGB">
<feFlood flood-opacity="0" result="BackgroundImageFix"/>
<feGaussianBlur in="BackgroundImageFix" stdDeviation="5"/>
<feComposite in2="SourceAlpha" operator="in" result="effect1_backgroundBlur_73_3553"/>
<feBlend mode="normal" in="SourceGraphic" in2="effect1_backgroundBlur_73_3553" result="shape"/>
</filter>
<linearGradient id="paint0_linear_73_3553" x1="91.1736" y1="-5.57855e-06" x2="0.499997" y2="93.937" gradientUnits="userSpaceOnUse">
<stop stop-color="white" stop-opacity="0.2"/>
<stop offset="1" stop-color="#6DAA4B" stop-opacity="0.1"/>
</linearGradient>
</defs>
</svg>
