<svg width="101" height="100" viewBox="0 0 101 100" fill="none" xmlns="http://www.w3.org/2000/svg">
<circle cx="50.5" cy="50" r="25" fill="#FFDC42" fill-opacity="0.7"/>
<g filter="url(#filter0_b_73_3541)">
<rect x="0.5" width="100" height="100" rx="20" fill="#F3FFEC" fill-opacity="0.3"/>
<rect x="1" y="0.5" width="99" height="99" rx="19.5" stroke="url(#paint0_linear_73_3541)"/>
</g>
<g clip-path="url(#clip0_73_3541)">
<path d="M71.261 31.7169H73.1067C74.0237 31.7169 74.7672 32.4603 74.7672 33.3773V49.4916C74.7672 50.4086 74.0238 51.1521 73.1067 51.1521H56.9925C56.0755 51.1521 55.332 50.4087 55.332 49.4916V33.3772C55.332 32.4603 56.0754 31.7168 56.9925 31.7168H67.835" stroke="white" stroke-width="1.46553" stroke-miterlimit="10" stroke-linecap="round" stroke-linejoin="round"/>
<path d="M68.5042 47.7444H61.9467C61.7562 47.7444 61.5735 47.6687 61.4389 47.534C61.3042 47.3994 61.2285 47.2167 61.2285 47.0262V41.5934C61.2285 41.4029 61.3042 41.2203 61.4389 41.0856C61.5735 40.9509 61.7562 40.8752 61.9467 40.8752H68.5042C68.6947 40.8752 68.8773 40.9509 69.012 41.0856C69.1467 41.2203 69.2224 41.4029 69.2224 41.5934V47.0262C69.2224 47.1205 69.2038 47.2139 69.1677 47.3011C69.1316 47.3882 69.0787 47.4674 69.012 47.5341C68.9454 47.6008 68.8662 47.6537 68.779 47.6897C68.6919 47.7258 68.5985 47.7444 68.5042 47.7444Z" stroke="white" stroke-width="1.46553" stroke-miterlimit="10" stroke-linecap="round" stroke-linejoin="round"/>
<path d="M55.3324 39.1423H26.2324V37.3792C26.2324 36.3583 27.0598 35.531 28.0806 35.531H55.3325M65.2254 34.9421C63.9227 34.9421 62.8665 35.9983 62.8665 37.301V40.8751H67.5843V37.301C67.5843 35.9983 66.5281 34.9421 65.2254 34.9421Z" stroke="white" stroke-width="1.46553" stroke-miterlimit="10" stroke-linecap="round" stroke-linejoin="round"/>
<path d="M55.3324 39.1423H26.2324V66.4353C26.2324 67.4561 27.0598 68.2834 28.0806 68.2834H61.6016C62.6224 68.2834 63.4507 67.4561 63.4507 66.4353V54.5698" stroke="white" stroke-width="1.46553" stroke-miterlimit="10" stroke-linecap="round" stroke-linejoin="round"/>
<path d="M38.01 44.9082H39.4539V51.6638M42.6668 44.9082H44.1107V51.6638M38.01 55.3714H39.4539V62.1271M56.9367 55.3714H58.3808V62.1271M35.209 49.8481C35.209 50.927 34.3344 51.8017 33.2554 51.8017C32.1765 51.8017 31.3018 50.9271 31.3018 49.8481V46.7239C31.3018 45.645 32.1764 44.7703 33.2554 44.7703C34.3343 44.7703 35.209 45.6449 35.209 46.7239V49.8481ZM51.6174 49.8481C51.6174 50.927 50.7428 51.8017 49.6638 51.8017C48.5849 51.8017 47.7102 50.9271 47.7102 49.8481V46.7239C47.7102 45.645 48.5848 44.7703 49.6638 44.7703C50.7427 44.7703 51.6174 45.6449 51.6174 46.7239V49.8481ZM35.209 60.3115C35.209 61.3904 34.3344 62.2651 33.2554 62.2651C32.1765 62.2651 31.3018 61.3905 31.3018 60.3115V57.1873C31.3018 56.1083 32.1764 55.2336 33.2554 55.2336C34.3343 55.2336 35.209 56.1083 35.209 57.1873V60.3115ZM47.0317 60.3115C47.0317 61.3904 46.1571 62.2651 45.0781 62.2651C43.9992 62.2651 43.1245 61.3905 43.1245 60.3115V57.1873C43.1245 56.1083 43.9991 55.2336 45.0781 55.2336C46.157 55.2336 47.0317 56.1083 47.0317 57.1873V60.3115ZM54.4116 60.3115C54.4116 61.3904 53.537 62.2651 52.458 62.2651C51.3791 62.2651 50.5044 61.3905 50.5044 60.3115V57.1873C50.5044 56.1083 51.379 55.2336 52.458 55.2336C53.5369 55.2336 54.4116 56.1083 54.4116 57.1873V60.3115Z" stroke="white" stroke-width="1.46553" stroke-miterlimit="10" stroke-linecap="round" stroke-linejoin="round"/>
</g>
<defs>
<filter id="filter0_b_73_3541" x="-9.5" y="-10" width="120" height="120" filterUnits="userSpaceOnUse" color-interpolation-filters="sRGB">
<feFlood flood-opacity="0" result="BackgroundImageFix"/>
<feGaussianBlur in="BackgroundImageFix" stdDeviation="5"/>
<feComposite in2="SourceAlpha" operator="in" result="effect1_backgroundBlur_73_3541"/>
<feBlend mode="normal" in="SourceGraphic" in2="effect1_backgroundBlur_73_3541" result="shape"/>
</filter>
<linearGradient id="paint0_linear_73_3541" x1="91.1736" y1="-5.57855e-06" x2="0.499997" y2="93.937" gradientUnits="userSpaceOnUse">
<stop stop-color="white" stop-opacity="0.2"/>
<stop offset="1" stop-color="#6DAA4B" stop-opacity="0.1"/>
</linearGradient>
<clipPath id="clip0_73_3541">
<rect width="50" height="50" fill="white" transform="translate(25.5 25)"/>
</clipPath>
</defs>
</svg>
