<svg width="101" height="100" viewBox="0 0 101 100" fill="none" xmlns="http://www.w3.org/2000/svg">
<circle cx="50.5" cy="50" r="25" fill="#FFDC42" fill-opacity="0.7"/>
<g filter="url(#filter0_b_73_3565)">
<rect x="0.5" width="100" height="100" rx="20" fill="#F3FFEC" fill-opacity="0.3"/>
<rect x="1" y="0.5" width="99" height="99" rx="19.5" stroke="url(#paint0_linear_73_3565)"/>
</g>
<path d="M25.4044 37.7166H70.5738C72.1753 37.7166 73.4784 36.4137 73.4784 34.8122V27.9044C73.4784 26.303 72.1754 25 70.5739 25H25.4044C23.803 25 22.5 26.303 22.5 27.9044V34.8122C22.5 36.4137 23.8028 37.7166 25.4044 37.7166ZM24.4673 27.9044C24.4673 27.3877 24.8877 26.9674 25.4044 26.9674H70.5738C71.0906 26.9674 71.5108 27.3878 71.5108 27.9044V34.8122C71.5106 35.0606 71.4118 35.2988 71.2362 35.4744C71.0605 35.6501 70.8224 35.7489 70.5739 35.7492H25.4044C24.8877 35.7492 24.4674 35.3288 24.4674 34.8122L24.4673 27.9044Z" fill="white"/>
<path d="M31.7516 32.342H53.6481C53.909 32.342 54.1592 32.2383 54.3437 32.0538C54.5282 31.8693 54.6318 31.6191 54.6318 31.3582C54.6318 31.0973 54.5282 30.8471 54.3437 30.6627C54.1592 30.4782 53.909 30.3745 53.6481 30.3745H31.7516C31.4907 30.3745 31.2405 30.4782 31.056 30.6627C30.8715 30.8471 30.7679 31.0973 30.7679 31.3582C30.7679 31.6191 30.8715 31.8693 31.056 32.0538C31.2405 32.2383 31.4907 32.342 31.7516 32.342ZM58.3708 31.7344C58.3944 31.7934 58.4259 31.8511 58.4613 31.9036C58.4967 31.9587 58.5374 32.0085 58.5833 32.0544C58.6748 32.1452 58.783 32.2174 58.902 32.2669C58.9624 32.2905 59.024 32.3102 59.087 32.322C59.2137 32.3485 59.3445 32.3485 59.4713 32.322C59.5329 32.3102 59.5959 32.2905 59.6549 32.2669C59.7739 32.2174 59.8821 32.1452 59.9736 32.0544C60.065 31.9627 60.1377 31.854 60.1874 31.7344C60.211 31.6754 60.2307 31.6137 60.2425 31.5508C60.2688 31.424 60.2688 31.2932 60.2425 31.1665C60.2307 31.1035 60.211 31.0406 60.1874 30.9815C60.1382 30.8621 60.0655 30.7537 59.9736 30.6628C59.929 30.6169 59.8779 30.5763 59.8241 30.5408C59.7716 30.5054 59.7139 30.474 59.6549 30.4503C59.5959 30.4254 59.5329 30.4071 59.4713 30.3939C59.344 30.3677 59.2129 30.3677 59.087 30.3939C59.024 30.4071 58.9624 30.4254 58.902 30.4503C58.843 30.474 58.7853 30.5054 58.7328 30.5408C58.679 30.5763 58.6279 30.6169 58.5833 30.6628C58.5374 30.7074 58.4967 30.7586 58.4613 30.8123C58.4259 30.8648 58.3944 30.9225 58.3708 30.9815C58.3459 31.0406 58.3262 31.1035 58.3144 31.1665C58.3013 31.2294 58.2947 31.2937 58.2947 31.358C58.2947 31.4222 58.3013 31.4865 58.3144 31.5508C58.3262 31.6137 58.3459 31.6754 58.3708 31.7344ZM63.3182 31.7344C63.3432 31.7934 63.3733 31.8511 63.4087 31.9036C63.4441 31.9587 63.4861 32.0085 63.5307 32.0531C63.7143 32.2368 63.9675 32.3417 64.2259 32.3417C64.2901 32.3417 64.3557 32.3351 64.4187 32.322C64.5451 32.2971 64.6654 32.2477 64.7728 32.1764C64.9073 32.0864 65.0176 31.9646 65.094 31.8219C65.1704 31.6792 65.2105 31.5199 65.2109 31.358C65.2109 31.0996 65.106 30.8464 64.9223 30.6628C64.8764 30.6169 64.8266 30.5763 64.7728 30.5408C64.719 30.5054 64.6626 30.474 64.6023 30.4503C64.5433 30.4254 64.4816 30.4071 64.4187 30.3939C64.0986 30.3297 63.7589 30.4346 63.5307 30.6628C63.4399 30.7543 63.3677 30.8625 63.3182 30.9815C63.2933 31.0419 63.2749 31.1035 63.2618 31.1665C63.2355 31.2932 63.2355 31.424 63.2618 31.5508C63.2749 31.6137 63.2933 31.6754 63.3182 31.7344ZM46.5216 52.4274H25.4044C24.8877 52.4274 24.4674 52.007 24.4674 51.4902V44.5826C24.4674 44.0658 24.8878 43.6456 25.4044 43.6456H70.5738C71.0906 43.6456 71.511 44.0659 71.511 44.5826C71.511 44.8435 71.6146 45.0937 71.7991 45.2782C71.9836 45.4627 72.2338 45.5663 72.4947 45.5663C72.7556 45.5663 73.0058 45.4627 73.1903 45.2782C73.3747 45.0937 73.4784 44.8435 73.4784 44.5826C73.4784 42.9811 72.1754 41.6782 70.5739 41.6782H25.4044C23.803 41.6782 22.5 42.9811 22.5 44.5826V51.4902C22.5 53.0917 23.8028 54.3948 25.4044 54.3948H46.5216C46.7825 54.3948 47.0327 54.2911 47.2171 54.1067C47.4016 53.9222 47.5053 53.672 47.5053 53.4111C47.5053 53.1502 47.4016 52.9 47.2171 52.7155C47.0327 52.531 46.7825 52.4274 46.5216 52.4274Z" fill="white"/>
<path d="M31.7516 47.0527C31.4907 47.0527 31.2405 47.1564 31.056 47.3409C30.8715 47.5253 30.7679 47.7755 30.7679 48.0364C30.7679 48.2973 30.8715 48.5476 31.056 48.732C31.2405 48.9165 31.4907 49.0202 31.7516 49.0202H53.6481C53.909 49.0202 54.1592 48.9165 54.3437 48.732C54.5282 48.5476 54.6318 48.2973 54.6318 48.0364C54.6318 47.7755 54.5282 47.5253 54.3437 47.3409C54.1592 47.1564 53.909 47.0527 53.6481 47.0527H31.7516ZM46.5216 58.3562H25.4044C23.803 58.3562 22.5 59.6593 22.5 61.2608V68.1684C22.5 69.7699 23.8028 71.0729 25.4044 71.0729H46.5216C46.7825 71.0729 47.0327 70.9692 47.2171 70.7847C47.4016 70.6003 47.5053 70.35 47.5053 70.0891C47.5053 69.8282 47.4016 69.578 47.2171 69.3936C47.0327 69.2091 46.7825 69.1054 46.5216 69.1054H25.4044C24.8877 69.1054 24.4674 68.6852 24.4674 68.1684V61.2608C24.4674 60.744 24.8878 60.3238 25.4044 60.3238H46.5216C46.7825 60.3238 47.0327 60.2201 47.2171 60.0357C47.4016 59.8512 47.5053 59.601 47.5053 59.3401C47.5053 59.0792 47.4016 58.829 47.2171 58.6445C47.0327 58.46 46.7825 58.3564 46.5216 58.3564V58.3562Z" fill="white"/>
<path d="M46.5213 63.7311H31.7513C31.4904 63.7311 31.2402 63.8347 31.0557 64.0192C30.8712 64.2037 30.7676 64.4539 30.7676 64.7148C30.7676 64.9757 30.8712 65.2259 31.0557 65.4104C31.2402 65.5949 31.4904 65.6985 31.7513 65.6985H46.5214C46.7823 65.6985 47.0325 65.5949 47.217 65.4104C47.4015 65.2259 47.5051 64.9757 47.5051 64.7148C47.5051 64.4539 47.4015 64.2037 47.217 64.0192C47.0325 63.8347 46.7821 63.7311 46.5213 63.7311ZM64.7351 47.4717C57.1455 47.4717 50.9709 53.6462 50.9709 61.2358C50.9709 68.8253 57.1455 75.0001 64.7351 75.0001C72.3248 75.0001 78.4995 68.8254 78.4995 61.2359C78.4995 53.6464 72.3248 47.4717 64.7351 47.4717ZM64.7351 73.0327C58.2303 73.0327 52.9383 67.7406 52.9383 61.2359C52.9383 54.7312 58.2303 49.4391 64.7351 49.4391C71.2399 49.4391 76.532 54.7311 76.532 61.2358C76.532 67.7404 71.2399 73.0327 64.7351 73.0327Z" fill="white"/>
<path d="M68.4275 58.9343V57.0622C68.4275 55.0872 66.8207 53.4802 64.8455 53.4802C62.8702 53.4802 61.2635 55.0872 61.2635 57.0622V58.8447C60.1552 59.2421 59.3604 60.3027 59.3604 61.546V65.3737C59.3604 66.9556 60.6473 68.2427 62.2294 68.2427H67.242C68.8239 68.2427 70.111 66.9556 70.111 65.3737V61.546C70.111 60.3867 69.4194 59.3864 68.4275 58.9343ZM63.2309 57.0622C63.2309 56.1721 63.9552 55.4476 64.8455 55.4476C65.7357 55.4476 66.4601 56.1721 66.4601 57.0622V58.6768H63.2309V57.0622ZM68.1436 65.3737C68.1433 65.6127 68.0482 65.8419 67.8792 66.0109C67.7102 66.1799 67.481 66.275 67.242 66.2753H62.2294C61.9903 66.275 61.7612 66.1799 61.5922 66.0109C61.4231 65.8419 61.3281 65.6127 61.3278 65.3737V61.546C61.328 61.3069 61.4231 61.0777 61.5921 60.9087C61.7611 60.7396 61.9903 60.6445 62.2294 60.6443H67.242C67.481 60.6445 67.7102 60.7396 67.8792 60.9087C68.0483 61.0777 68.1433 61.3069 68.1436 61.546V65.3737Z" fill="white"/>
<defs>
<filter id="filter0_b_73_3565" x="-9.5" y="-10" width="120" height="120" filterUnits="userSpaceOnUse" color-interpolation-filters="sRGB">
<feFlood flood-opacity="0" result="BackgroundImageFix"/>
<feGaussianBlur in="BackgroundImageFix" stdDeviation="5"/>
<feComposite in2="SourceAlpha" operator="in" result="effect1_backgroundBlur_73_3565"/>
<feBlend mode="normal" in="SourceGraphic" in2="effect1_backgroundBlur_73_3565" result="shape"/>
</filter>
<linearGradient id="paint0_linear_73_3565" x1="91.1736" y1="-5.57855e-06" x2="0.499997" y2="93.937" gradientUnits="userSpaceOnUse">
<stop stop-color="white" stop-opacity="0.2"/>
<stop offset="1" stop-color="#6DAA4B" stop-opacity="0.1"/>
</linearGradient>
</defs>
</svg>
