<svg width="65" height="64" viewBox="0 0 65 64" fill="none" xmlns="http://www.w3.org/2000/svg">
<circle cx="40.9395" cy="24.5269" r="23.6953" fill="#89AF5C"/>
<g filter="url(#filter0_b_50_2454)">
<rect x="0.0664062" y="8.38623" width="55" height="55" rx="5" fill="#F3FFEC" fill-opacity="0.3"/>
<rect x="0.566406" y="8.88623" width="54" height="54" rx="4.5" stroke="url(#paint0_linear_50_2454)"/>
</g>
<path d="M22.2042 50.5819C23.48 50.5798 24.7083 50.1023 25.6453 49.2441C26.5822 48.3859 27.1593 47.2098 27.2618 45.9494C27.6463 45.6708 28.1102 45.5207 28.5865 45.5207C29.0627 45.5207 29.5266 45.6708 29.9111 45.9494C30.0123 47.2361 30.6087 48.435 31.577 49.298C32.5452 50.1609 33.8112 50.6219 35.1128 50.5854C36.4144 50.5489 37.6521 50.0178 38.5696 49.1019C39.4871 48.1861 40.0141 46.9557 40.0417 45.6653L40.975 41.5083C40.9985 41.4037 41.0009 41.2955 40.9822 41.1899C40.9634 41.0844 40.9239 40.9835 40.8659 40.893C40.8078 40.8026 40.7323 40.7244 40.6438 40.6628C40.5552 40.6013 40.4553 40.5577 40.3497 40.5344C40.2441 40.5111 40.135 40.5087 40.0285 40.5273C39.9219 40.5458 39.8201 40.585 39.7289 40.6426C39.6376 40.7001 39.5587 40.7749 39.4966 40.8627C39.4346 40.9505 39.3905 41.0495 39.3671 41.1541L39.0503 42.5656C38.489 41.808 37.7245 41.2217 36.8438 40.8734C35.9631 40.525 35.0014 40.4286 34.0681 40.595C33.1348 40.7614 32.2673 41.184 31.5643 41.8148C30.8613 42.4455 30.3509 43.2591 30.0912 44.1631C29.6154 43.9631 29.1038 43.86 28.587 43.86C28.0702 43.86 27.5587 43.9631 27.0828 44.1631C26.8175 43.2634 26.3043 42.455 25.6011 41.8284C24.8978 41.2019 24.0322 40.7821 23.1015 40.6162C22.1708 40.4502 21.2119 40.5447 20.3324 40.8891C19.4529 41.2334 18.6876 41.814 18.1226 42.5656L17.8146 41.1922C17.7672 40.9808 17.6369 40.7968 17.4525 40.6805C17.2682 40.5643 17.0447 40.5254 16.8314 40.5725C16.6181 40.6195 16.4324 40.7486 16.3152 40.9314C16.1979 41.1141 16.1587 41.3356 16.2062 41.547L17.1317 45.6653C17.1632 46.9787 17.7112 48.2278 18.6589 49.1463C19.6065 50.0648 20.8787 50.58 22.2042 50.5819ZM34.9693 42.1477C35.879 42.1488 36.7511 42.5076 37.3943 43.1452C38.0375 43.7828 38.3993 44.6472 38.4003 45.5489C38.2395 50.0508 31.698 50.0492 31.5377 45.5489C31.5389 44.6473 31.9007 43.783 32.5439 43.1455C33.1871 42.508 34.0591 42.1494 34.9687 42.1482L34.9693 42.1477ZM22.2042 42.1477C23.1139 42.1488 23.986 42.5076 24.6292 43.1452C25.2724 43.7828 25.6342 44.6472 25.6352 45.5489C25.4744 50.0508 18.9329 50.0492 18.7726 45.5489C18.7738 44.6473 19.1356 43.783 19.7788 43.1455C20.422 42.508 21.294 42.1494 22.2036 42.1482L22.2042 42.1477ZM38.3603 29.946C37.6499 28.1926 36.6526 25.6576 35.3684 22.341C35.2198 21.9676 34.9904 21.6311 34.6964 21.3551C34.4023 21.0791 34.0507 20.8705 33.6665 20.7438C33.2822 20.6172 32.8745 20.5756 32.4723 20.6221C32.0701 20.6686 31.683 20.802 31.3384 21.0129L29.2057 22.3367C29.0288 22.4442 28.8255 22.5013 28.6181 22.5016C28.4106 22.502 28.2071 22.4457 28.0298 22.3389L25.8625 20.9933C25.5202 20.785 25.1364 20.6529 24.7375 20.6063C24.3386 20.5597 23.9342 20.5996 23.5525 20.7233C23.1707 20.847 22.8207 21.0516 22.5266 21.3227C22.2326 21.5939 22.0015 21.9252 21.8495 22.2937L18.7539 29.964C16.0091 30.6496 12.9453 31.894 12.9453 34.0399C12.9453 37.4145 20.8158 39.1796 28.5909 39.1796C36.3659 39.1796 44.2364 37.4145 44.2364 34.0399C44.2364 31.8793 41.1358 30.6311 38.3603 29.946ZM28.5909 37.5472C18.7978 37.5124 9.47255 34.4747 17.9821 31.8776L17.6549 32.6884C17.5798 32.8881 17.5866 33.109 17.6736 33.3038C17.7607 33.4987 17.9213 33.6521 18.121 33.7312C18.3206 33.8102 18.5436 33.8088 18.7422 33.7271C18.9408 33.6454 19.0993 33.4899 19.1838 33.2939L20.122 30.9706C20.122 30.939 23.3729 22.9368 23.379 22.8993C23.4391 22.7508 23.5313 22.6172 23.6492 22.5079C23.767 22.3985 23.9075 22.316 24.0609 22.2663C24.2143 22.2165 24.3768 22.2006 24.5371 22.2197C24.6974 22.2388 24.8514 22.2925 24.9885 22.377L27.1608 23.7247C27.5998 23.991 28.1045 24.1317 28.6192 24.1313C29.1338 24.1309 29.6383 23.9895 30.0769 23.7225L32.2124 22.3965C32.3506 22.3118 32.506 22.2581 32.6674 22.2393C32.8289 22.2205 32.9925 22.2371 33.1468 22.2878C33.3011 22.3384 33.4423 22.4221 33.5605 22.5327C33.6787 22.6433 33.7709 22.7783 33.8307 22.9281C35.6857 27.6428 36.6294 30.2459 38.0243 33.3467C38.1244 33.5351 38.2948 33.6772 38.4991 33.7428C38.7034 33.8084 38.9255 33.7923 39.118 33.6979C39.3106 33.6035 39.4582 33.4383 39.5296 33.2375C39.6009 33.0367 39.5903 32.8162 39.4999 32.6231C39.4176 32.4577 39.3023 32.203 39.1552 31.8624C47.7399 34.4632 38.4097 37.5108 28.5909 37.5472Z" fill="#191919"/>
<defs>
<filter id="filter0_b_50_2454" x="-9.93359" y="-1.61377" width="75" height="75" filterUnits="userSpaceOnUse" color-interpolation-filters="sRGB">
<feFlood flood-opacity="0" result="BackgroundImageFix"/>
<feGaussianBlur in="BackgroundImageFix" stdDeviation="5"/>
<feComposite in2="SourceAlpha" operator="in" result="effect1_backgroundBlur_50_2454"/>
<feBlend mode="normal" in="SourceGraphic" in2="effect1_backgroundBlur_50_2454" result="shape"/>
</filter>
<linearGradient id="paint0_linear_50_2454" x1="49.9369" y1="8.38623" x2="0.0664047" y2="60.0516" gradientUnits="userSpaceOnUse">
<stop stop-color="white" stop-opacity="0.2"/>
<stop offset="1" stop-color="#6DAA4B" stop-opacity="0.1"/>
</linearGradient>
</defs>
</svg>
