<svg width="117" height="114" viewBox="0 0 117 114" fill="none" xmlns="http://www.w3.org/2000/svg">
<circle cx="81.6377" cy="35.9102" r="35" fill="#FFDC42"/>
<g filter="url(#filter0_b_50_3245)">
<rect x="0.788086" y="13.1526" width="100" height="100" rx="20" fill="#F3FFEC" fill-opacity="0.3"/>
<rect x="1.28809" y="13.6526" width="99" height="99" rx="19.5" stroke="url(#paint0_linear_50_3245)"/>
</g>
<g clip-path="url(#clip0_50_3245)">
<path d="M32.5726 54.4563H32.4445C30.8026 54.4563 29.4639 55.7993 29.4639 57.4369V70.4141C29.4639 72.0582 30.8026 73.3968 32.4445 73.3968H32.5748C34.2167 73.3968 35.5554 72.0538 35.5554 70.4141V57.4368C35.5532 55.7993 34.2124 54.4563 32.5726 54.4563ZM36.9816 75.423C36.9816 76.9304 38.2135 78.1581 39.7209 78.1581H42.6482V85.1677C42.6482 86.8138 43.9912 88.1526 45.6288 88.1526H45.7569C47.401 88.1526 48.7418 86.8118 48.7418 85.1677V78.1581H52.8327V85.1677C52.8327 86.8138 54.1799 88.1526 55.8176 88.1526H55.9436C57.5876 88.1526 58.9263 86.8118 58.9263 85.1677V78.1581H61.8557C63.3609 78.1581 64.5929 76.9304 64.5929 75.423V54.9324H36.9816V75.423ZM57.6644 42.5061L59.9896 38.917C60.139 38.6906 60.0728 38.3811 59.8444 38.2337C59.6181 38.0843 59.3085 38.1462 59.1611 38.3789L56.7506 42.0919C54.9422 41.351 52.9224 40.9347 50.7893 40.9347C48.6542 40.9347 46.6386 41.351 44.826 42.0919L42.4198 38.3789C42.2725 38.1462 41.9607 38.0843 41.7322 38.2337C41.5038 38.381 41.4376 38.6906 41.587 38.917L43.9143 42.5061C39.7187 44.5622 36.8898 48.4374 36.8898 52.8827C36.8898 53.156 36.9069 53.425 36.9303 53.6919H64.6504C64.6739 53.425 64.6888 53.156 64.6888 52.8827C64.6889 48.4374 61.8577 44.5622 57.6644 42.5061ZM44.3627 48.9327C43.626 48.9327 43.0282 48.3391 43.0282 47.6004C43.0282 46.8617 43.626 46.2702 44.3627 46.2702C45.1035 46.2702 45.6971 46.8616 45.6971 47.6004C45.6971 48.3392 45.0993 48.9327 44.3627 48.9327ZM57.2139 48.9327C56.4773 48.9327 55.8794 48.3391 55.8794 47.6004C55.8794 46.8617 56.4773 46.2702 57.2139 46.2702C57.9526 46.2702 58.5462 46.8616 58.5462 47.6004C58.5462 48.3391 57.9526 48.9327 57.2139 48.9327ZM69.1299 54.4563H69.0061C67.3642 54.4563 66.0212 55.7993 66.0212 57.4369V70.4141C66.0212 72.0582 67.3663 73.3968 69.0061 73.3968H69.1321C70.7761 73.3968 72.1127 72.0538 72.1127 70.4141V57.4368C72.1127 55.7993 70.7718 54.4563 69.1299 54.4563Z" fill="#010101"/>
</g>
<defs>
<filter id="filter0_b_50_3245" x="-9.21191" y="3.15259" width="120" height="120" filterUnits="userSpaceOnUse" color-interpolation-filters="sRGB">
<feFlood flood-opacity="0" result="BackgroundImageFix"/>
<feGaussianBlur in="BackgroundImageFix" stdDeviation="5"/>
<feComposite in2="SourceAlpha" operator="in" result="effect1_backgroundBlur_50_3245"/>
<feBlend mode="normal" in="SourceGraphic" in2="effect1_backgroundBlur_50_3245" result="shape"/>
</filter>
<linearGradient id="paint0_linear_50_3245" x1="91.4616" y1="13.1526" x2="0.788083" y2="107.09" gradientUnits="userSpaceOnUse">
<stop stop-color="white" stop-opacity="0.2"/>
<stop offset="1" stop-color="#6DAA4B" stop-opacity="0.1"/>
</linearGradient>
<clipPath id="clip0_50_3245">
<rect width="50" height="50" fill="white" transform="translate(25.7881 38.1526)"/>
</clipPath>
</defs>
</svg>
