<svg width="1921" height="970" viewBox="0 0 1921 970" fill="none" xmlns="http://www.w3.org/2000/svg">
<g clip-path="url(#clip0_2051_11)">
<path d="M-549.493 2273.27C-355.792 2299.18 -219.163 2476.89 -244.903 2669.32C-270.653 2861.81 -449.196 2997.43 -642.897 2971.52C-836.662 2945.6 -973.283 2767.82 -947.534 2575.33C-921.793 2382.9 -743.226 2247.35 -549.493 2273.27ZM-1342.95 1683.02C-1083.76 1485.68 -762.537 1400.81 -438.583 1444.15C-115.875 1487.32 171.029 1652.69 369.368 1909.77C449.453 2013.76 429.641 2163.09 325.241 2242.56C274.514 2281.27 211.65 2297.84 148.233 2289.36C85.1046 2280.91 29.0138 2248.56 -9.74495 2198.27C-130.438 2041.77 -305.093 1941.09 -501.543 1914.81C-698.728 1888.43 -894.279 1940.08 -1052.07 2060.17C-1102.78 2098.75 -1165.62 2115.39 -1228.97 2106.91C-1292.17 2098.46 -1348.22 2066.11 -1387.02 2015.82C-1467.23 1911.8 -1447.43 1762.55 -1342.95 1683.02ZM-2297.57 441.44C-1705.12 -8.741 -971.379 -202.076 -231.607 -103.117C507.175 -4.2912 1163.69 374.336 1616.99 963.148C1697.07 1067.14 1677.16 1216.45 1572.6 1295.91C1521.94 1334.39 1459.18 1350.88 1395.9 1342.41C1332.64 1333.95 1276.48 1301.65 1237.7 1251.24C861.959 763.223 317.819 449.302 -294.545 367.386C-907.805 285.351 -1515.96 445.618 -2007.01 818.849C-2057.68 857.364 -2120.54 873.937 -2183.8 865.476C-2247.02 857.018 -2303.17 824.59 -2341.92 774.242C-2422.03 670.174 -2402.15 520.804 -2297.57 441.44Z" fill="white" fill-opacity="0.1"/>
</g>
<g clip-path="url(#clip1_2051_11)">
<g filter="url(#filter0_d_2051_11)">
<path d="M2567.27 2037.56C2395.56 2038.18 2256.34 2168.19 2256.91 2327.29C2257.48 2486.45 2397.64 2615.5 2569.35 2614.88C2741.11 2614.27 2880.34 2484.21 2879.76 2325.05C2879.19 2165.95 2739.01 2036.95 2567.27 2037.56ZM3325.62 1641.6C3122.21 1453.87 2851.98 1351.01 2564.8 1352.04C2278.74 1353.07 2009.99 1457.19 1807.98 1645.19C1726.4 1721.26 1726.7 1844.7 1808.63 1920.31C1848.44 1957.11 1901.32 1977.22 1957.54 1977.01C2013.5 1976.81 2066.05 1956.44 2105.53 1919.66C2228.46 1805.21 2392.06 1741.82 2566.2 1741.19C2741 1740.56 2905.51 1803.17 3029.35 1917.42C3069.15 1954.12 3122.01 1974.27 3178.17 1974.07C3234.19 1973.87 3286.71 1953.49 3326.21 1916.72C3407.91 1840.65 3407.61 1717.26 3325.62 1641.6ZM4298.35 733.314C3833.31 304.937 3215.98 70.3873 2560.2 72.7466C1905.3 75.1028 1290.3 313.533 828.489 744.223C746.903 820.286 747.29 943.73 829.365 1019.34C869.138 1055.96 921.941 1075.98 978.044 1075.78C1034.12 1075.58 1086.72 1055.25 1126.23 1018.37C1509.02 661.419 2018.77 463.717 2561.6 461.764C3105.23 459.808 3616.89 654.231 4002.34 1009.37C4042.11 1046.02 4095 1066.12 4151.07 1065.92C4207.12 1065.72 4259.72 1045.29 4299.2 1008.46C4380.81 932.338 4380.45 808.848 4298.35 733.314Z" fill="#92B46A"/>
</g>
</g>
<defs>
<filter id="filter0_d_2051_11" x="736.553" y="52.729" width="3632.62" height="2582.16" filterUnits="userSpaceOnUse" color-interpolation-filters="sRGB">
<feFlood flood-opacity="0" result="BackgroundImageFix"/>
<feColorMatrix in="SourceAlpha" type="matrix" values="0 0 0 0 0 0 0 0 0 0 0 0 0 0 0 0 0 0 127 0" result="hardAlpha"/>
<feOffset dx="-11"/>
<feGaussianBlur stdDeviation="10"/>
<feComposite in2="hardAlpha" operator="out"/>
<feColorMatrix type="matrix" values="0 0 0 0 1 0 0 0 0 1 0 0 0 0 1 0 0 0 0.05 0"/>
<feBlend mode="normal" in2="BackgroundImageFix" result="effect1_dropShadow_2051_11"/>
<feBlend mode="normal" in="SourceGraphic" in2="effect1_dropShadow_2051_11" result="shape"/>
</filter>
<clipPath id="clip0_2051_11">
<rect width="2073" height="700" fill="white" transform="matrix(-0.991171 -0.132588 -0.132588 0.991171 1778.47 275.428)"/>
</clipPath>
<clipPath id="clip1_2051_11">
<rect width="1152.22" height="573.855" fill="white" transform="translate(765.936 168.149) rotate(-0.206136)"/>
</clipPath>
</defs>
</svg>
