<svg width="116" height="113" viewBox="0 0 116 113" fill="none" xmlns="http://www.w3.org/2000/svg">
<circle cx="80.8496" cy="35" r="35" fill="#FFDC42"/>
<g filter="url(#filter0_b_2051_7)">
<rect y="12.2424" width="100" height="100" rx="20" fill="#F3FFEC" fill-opacity="0.3"/>
<rect x="0.5" y="12.7424" width="99" height="99" rx="19.5" stroke="url(#paint0_linear_2051_7)"/>
</g>
<g clip-path="url(#clip0_2051_7)">
<path d="M68.7498 87.2423H31.2498C27.7983 87.2423 25 84.444 25 80.992V43.492C25 40.0405 27.7983 37.2422 31.2498 37.2422H68.7498C72.2018 37.2422 75.0001 40.0405 75.0001 43.492V80.992C75.0001 84.444 72.2018 87.2423 68.7498 87.2423ZM31.2498 39.742C29.1789 39.742 27.4998 41.4211 27.4998 43.492V80.992C27.4998 83.0634 29.1789 84.742 31.2498 84.742H68.7498C70.8212 84.742 72.4998 83.0634 72.4998 80.992V43.492C72.4998 41.4211 70.8212 39.742 68.7498 39.742H31.2498Z" fill="#010101"/>
<path d="M62.5001 75.9923H61.25C57.7985 75.9923 55.0001 73.194 55.0001 69.742H57.5C57.5 71.8134 59.179 73.492 61.25 73.492H62.5001C64.5711 73.492 66.2501 71.8134 66.2501 69.742V67.2422C66.2501 65.1712 64.5711 63.4922 62.5001 63.4922H61.25C57.7985 63.4922 55.0001 60.6939 55.0001 57.2423V54.742C55.0001 51.2905 57.7985 48.4922 61.25 48.4922H62.5001C65.9521 48.4922 68.75 51.2905 68.75 54.742H66.2501C66.2501 52.6711 64.5711 50.992 62.5001 50.992H61.25C59.179 50.992 57.5 52.6711 57.5 54.742V57.2423C57.5 59.3133 59.179 60.9923 61.25 60.9923H62.5001C65.9521 60.9923 68.75 63.7902 68.75 67.2422V69.742C68.75 73.194 65.9521 75.9923 62.5001 75.9923ZM45.0003 75.9923H43.7501C40.2982 75.9923 37.5003 73.194 37.5003 69.742V54.742C37.5003 51.2905 40.2982 48.4922 43.7501 48.4922H45.0003C48.4518 48.4922 51.2501 51.2905 51.2501 54.742V69.742C51.2501 73.194 48.4518 75.9923 45.0003 75.9923ZM43.7501 50.992C41.6792 50.992 40.0001 52.6711 40.0001 54.742V69.742C40.0001 71.8134 41.6792 73.492 43.7501 73.492H45.0003C47.0712 73.492 48.7503 71.8134 48.7503 69.742V54.742C48.7503 52.6711 47.0712 50.992 45.0003 50.992H43.7501ZM31.25 62.242H33.7503V75.9923H31.25V62.242ZM33.7503 57.2423H31.25V59.7422H33.7503V57.2423Z" fill="#010101"/>
</g>
<defs>
<filter id="filter0_b_2051_7" x="-10" y="2.24243" width="120" height="120" filterUnits="userSpaceOnUse" color-interpolation-filters="sRGB">
<feFlood flood-opacity="0" result="BackgroundImageFix"/>
<feGaussianBlur in="BackgroundImageFix" stdDeviation="5"/>
<feComposite in2="SourceAlpha" operator="in" result="effect1_backgroundBlur_2051_7"/>
<feBlend mode="normal" in="SourceGraphic" in2="effect1_backgroundBlur_2051_7" result="shape"/>
</filter>
<linearGradient id="paint0_linear_2051_7" x1="90.6736" y1="12.2424" x2="-2.87679e-06" y2="106.179" gradientUnits="userSpaceOnUse">
<stop stop-color="white" stop-opacity="0.2"/>
<stop offset="1" stop-color="#6DAA4B" stop-opacity="0.1"/>
</linearGradient>
<clipPath id="clip0_2051_7">
<rect width="50" height="50" fill="white" transform="translate(25 37.2422)"/>
</clipPath>
</defs>
</svg>
