<svg width="116" height="113" viewBox="0 0 116 113" fill="none" xmlns="http://www.w3.org/2000/svg">
<circle cx="80.8496" cy="35" r="35" fill="#FFDC42"/>
<g filter="url(#filter0_b_2051_8)">
<rect y="12.2424" width="100" height="100" rx="20" fill="#F3FFEC" fill-opacity="0.3"/>
<rect x="0.5" y="12.7424" width="99" height="99" rx="19.5" stroke="url(#paint0_linear_2051_8)"/>
</g>
<g clip-path="url(#clip0_2051_8)">
<path d="M70.0261 77.388C68.5599 76.7875 67.9327 75.9906 67.9933 74.8016C68.0558 73.4137 67.2684 72.3972 66.8945 71.9955C67.1204 71.1326 67.7805 68.1473 66.8951 65.5543C65.9436 62.7789 63.0387 58.54 60.0413 54.3733C58.8142 52.6621 58.7562 50.8021 58.6891 48.6483C58.6249 46.5941 58.5524 44.2655 57.4068 41.677C56.1613 38.8584 53.6619 37.2422 50.5493 37.2422C48.6976 37.2422 46.7969 37.8209 45.3343 38.8297C42.3392 40.8968 42.7351 45.4036 42.9971 48.3857C43.033 48.7941 43.0668 49.1798 43.0864 49.5092C43.2609 52.4298 43.1022 53.9692 42.8946 54.4371C42.7604 54.7428 42.0994 55.613 41.3999 56.5343C40.6764 57.4871 39.8562 58.5671 39.1839 59.5735C38.3818 60.7845 37.7343 62.6355 37.108 64.4255C36.6498 65.7353 36.217 66.9725 35.7957 67.7119C35.2159 68.7321 35.0601 69.9393 35.3618 71.0734C35.0595 71.2834 34.6228 71.6968 34.2541 72.4762C33.8085 73.427 32.9044 73.938 31.0244 74.2995C30.1604 74.4762 29.5647 74.8395 29.2532 75.3792C28.7999 76.1646 29.0468 77.1515 29.2721 77.8259C29.6049 78.8174 29.3975 79.4449 29.0204 80.5843C28.9335 80.8472 28.835 81.1449 28.7352 81.4733C28.578 81.9915 28.6347 82.4626 28.9034 82.8736C29.6134 83.959 31.6852 84.3418 33.818 84.5936C35.0915 84.7448 36.4852 85.2541 37.8333 85.7469C39.1541 86.2296 40.5199 86.7287 41.7613 86.8802C41.95 86.904 42.1369 86.916 42.3171 86.916C44.1915 86.916 45.0384 85.6722 45.3069 85.1612C45.9802 85.0238 48.3024 84.5838 50.6957 84.5248C53.0852 84.4566 55.3972 84.9284 56.0521 85.0751C56.258 85.4692 56.8008 86.3694 57.666 86.8332C58.1416 87.0932 58.8034 87.2422 59.4813 87.2422H59.4815C60.2054 87.2422 61.5826 87.071 62.6726 85.9243C63.7598 84.7722 66.4763 83.3013 68.4599 82.2274C68.8678 82.0077 69.2744 81.7855 69.6797 81.561C70.794 80.9433 71.402 80.0607 71.3478 79.1395C71.3025 78.3744 70.7961 77.7033 70.0261 77.388ZM45.3587 77.1662C45.22 76.1892 43.9632 75.2201 42.5076 74.0982C41.3174 73.1806 39.9684 72.1408 39.5967 71.2601C38.8287 69.4434 39.4341 66.2489 40.4897 64.604C41.0113 63.7804 41.4374 62.5314 41.8495 61.3235C42.2945 60.0192 42.7546 58.6707 43.2692 58.0804C44.0841 57.1587 44.8373 55.3654 44.9707 53.9521C45.7338 54.6807 46.9176 55.6051 48.0112 55.6051C48.1796 55.6051 48.343 55.5831 48.4992 55.539C49.2474 55.323 50.3479 54.6871 51.4122 54.0723C52.3298 53.5421 53.4612 52.8884 53.887 52.8288C54.617 53.8771 58.8588 63.2642 59.2923 66.2788C59.6352 68.664 59.2729 70.6358 59.0908 71.4081C58.9235 71.3848 58.7548 71.3727 58.5859 71.3719C57.4044 71.3719 57.0916 72.0168 57.0101 72.4019C56.8006 73.4024 56.7785 76.6016 56.7762 77.3205C56.349 77.8633 54.1885 80.4194 51.0866 80.8789C49.8232 81.0625 48.6433 81.1556 47.5801 81.1556C46.6712 81.1556 46.0912 81.0854 45.8504 81.0489L44.2917 79.2654C44.9063 78.962 45.5207 78.3216 45.3587 77.1662ZM47.3366 47.7585C47.2879 47.7795 47.2401 47.8019 47.193 47.8259C47.1881 47.7187 47.1772 47.6118 47.1604 47.5059C46.9902 46.5263 46.3407 45.8154 45.6163 45.8154C45.5627 45.8154 45.5087 45.8195 45.4496 45.8285C45.0186 45.9003 44.6805 46.224 44.4953 46.6831C44.6577 45.6758 45.2284 44.9301 45.9055 44.9301C46.7005 44.9301 47.3722 46.0016 47.3722 47.2698C47.3722 47.4296 47.3606 47.5886 47.3366 47.7585ZM53.5147 48.5137C53.5875 48.2819 53.6268 48.0311 53.6268 47.7708C53.6268 46.6209 52.8973 45.7201 51.966 45.7201C51.0558 45.7201 50.3153 46.64 50.3153 47.7708C50.3153 47.8478 50.3191 47.925 50.3263 48.0021L50.1852 47.9482C50.0802 47.63 50.027 47.2971 50.0275 46.9621C50.0275 45.5872 50.9061 44.4685 51.9865 44.4685C53.0667 44.4685 53.9455 45.5872 53.9455 46.9621C53.9455 47.5341 53.7876 48.08 53.5147 48.5137ZM52.7181 51.1898C52.7026 51.2593 52.6694 51.2901 52.3032 51.4806C52.1183 51.5769 51.8881 51.6967 51.6001 51.8721L51.4076 51.9887C50.6342 52.4575 48.8232 53.5557 48.3315 53.6202C47.9976 53.6651 47.791 53.5356 47.3266 53.22C47.216 53.144 47.1043 53.0696 46.9915 52.9967C46.1543 52.4474 45.6158 51.8423 45.555 51.6057C45.8279 51.3947 46.5045 50.8667 46.8509 50.5541C47.554 49.9003 48.2615 49.461 48.6117 49.461C48.6302 49.461 48.647 49.4623 48.6643 49.4655C49.0758 49.5382 50.0907 49.9433 50.8321 50.239C51.1747 50.3757 51.4706 50.4937 51.6788 50.5685C52.3347 50.7938 52.6767 51.082 52.7181 51.1898ZM58.6111 81.7425C58.9811 80.0735 59.4074 77.8029 59.3383 76.4644C59.3224 76.1603 59.2955 75.8293 59.2695 75.5093C59.2208 74.911 59.1485 74.0216 59.2231 73.7578C59.2378 73.7509 59.2542 73.745 59.2724 73.74C59.2755 74.5052 59.4418 76.0316 60.6624 76.5639C61.0262 76.7226 61.442 76.8029 61.898 76.8029C63.1208 76.8029 64.4776 76.2031 65.0333 75.6474C65.3605 75.3201 65.6358 74.9198 65.8285 74.6028C65.8707 74.7262 65.8966 74.8875 65.883 75.0954C65.8103 76.2241 66.3589 77.7215 67.4028 78.2733L67.5548 78.3531C67.9266 78.5482 68.9141 79.0667 68.93 79.3126C68.9299 79.3128 68.9217 79.3416 68.8666 79.3928C68.6192 79.6189 67.7486 80.0634 66.9066 80.4935C65.413 81.2561 63.72 82.1205 62.9597 82.9202C61.8892 84.0468 60.6783 84.8035 59.9472 84.8035C59.8661 84.8046 59.7853 84.7932 59.7077 84.7697C58.9136 84.5222 58.26 83.3764 58.6111 81.7425ZM31.5436 77.4846C31.4626 77.1056 31.3986 76.8064 31.4673 76.5165C31.5172 76.3018 32.5773 76.0716 33.0301 75.9734C33.6667 75.8352 34.3251 75.6924 34.7556 75.4311C35.3377 75.0785 35.6529 74.4282 35.931 73.8544C36.1323 73.4395 36.3402 73.0105 36.5875 72.8696C36.6015 72.8614 36.6228 72.8519 36.6634 72.8519C37.1269 72.8519 38.0993 73.8262 38.6597 74.6982C38.8018 74.918 39.0651 75.3585 39.3697 75.8685C40.2807 77.3928 41.5281 79.4805 42.1795 80.1802C42.7666 80.8092 43.7169 82.0185 43.4831 83.0558C43.312 83.8605 42.4008 84.515 42.1859 84.6597C42.1079 84.6774 42.0113 84.6864 41.8977 84.6864C40.6508 84.6864 38.1826 83.649 36.8565 83.0917L36.6603 83.0092C35.9198 82.6987 34.711 82.5031 33.5419 82.314C32.6118 82.1633 31.338 81.9572 31.1268 81.771C30.9557 81.579 31.1542 80.9549 31.3293 80.4043C31.4554 80.0085 31.5855 79.5993 31.6568 79.171C31.758 78.4877 31.639 77.9315 31.5436 77.4846Z" fill="#010101"/>
</g>
<defs>
<filter id="filter0_b_2051_8" x="-10" y="2.24243" width="120" height="120" filterUnits="userSpaceOnUse" color-interpolation-filters="sRGB">
<feFlood flood-opacity="0" result="BackgroundImageFix"/>
<feGaussianBlur in="BackgroundImageFix" stdDeviation="5"/>
<feComposite in2="SourceAlpha" operator="in" result="effect1_backgroundBlur_2051_8"/>
<feBlend mode="normal" in="SourceGraphic" in2="effect1_backgroundBlur_2051_8" result="shape"/>
</filter>
<linearGradient id="paint0_linear_2051_8" x1="90.6736" y1="12.2424" x2="-2.87679e-06" y2="106.179" gradientUnits="userSpaceOnUse">
<stop stop-color="white" stop-opacity="0.2"/>
<stop offset="1" stop-color="#6DAA4B" stop-opacity="0.1"/>
</linearGradient>
<clipPath id="clip0_2051_8">
<rect width="50" height="50" fill="white" transform="translate(25 37.2422)"/>
</clipPath>
</defs>
</svg>
